<svg width="43" height="43" viewBox="0 0 43 43" fill="none" xmlns="http://www.w3.org/2000/svg">
<rect width="42.9714" height="42.9714" rx="21.4857" fill="white"/>
<path d="M21.4709 32.6361C23.2112 32.6361 24.6221 31.2253 24.6221 29.485C24.6221 27.7446 23.2112 26.3338 21.4709 26.3338C19.7306 26.3338 18.3198 27.7446 18.3198 29.485C18.3198 31.2253 19.7306 32.6361 21.4709 32.6361Z" fill="#DEE7F5"/>
<path d="M21.8782 15.9009H24.2353M21.8782 12.7084H24.2353M21.8782 19.0933H24.2353M26.9853 29.3889C26.9853 30.8706 26.4059 32.2916 25.3744 33.3393C24.343 34.3871 22.944 34.9757 21.4854 34.9757C20.0267 34.9757 18.6277 34.3871 17.5963 33.3393C16.5648 32.2916 15.9854 30.8706 15.9854 29.3889C15.9825 28.4782 16.1951 27.5802 16.6053 26.7704C17.0155 25.9607 17.6113 25.2629 18.3425 24.7359V11.1681C18.3425 10.3214 18.6736 9.50941 19.263 8.91071C19.8524 8.31201 20.6518 7.97567 21.4854 7.97567C22.3189 7.97567 23.1183 8.31201 23.7077 8.91071C24.2971 9.50941 24.6282 10.3214 24.6282 11.1681V24.7359C25.3594 25.2629 25.9552 25.9607 26.3654 26.7704C26.7756 27.5802 26.9882 28.4782 26.9853 29.3889Z" stroke="#96A6C0" stroke-width="1.5" stroke-linecap="round" stroke-linejoin="round"/>
</svg>
