<svg width="43" height="43" viewBox="0 0 43 43" fill="none" xmlns="http://www.w3.org/2000/svg">
<rect width="42.9714" height="42.9714" rx="21.4857" fill="white"/>
<path d="M29.3015 15.4286C29.6856 15.0279 30.1631 14.7287 30.6912 14.5577C31.2193 14.3868 31.7815 14.3495 32.3276 14.4491C32.8736 14.5487 33.3865 14.7822 33.8202 15.1286C34.2539 15.4751 34.5949 15.9236 34.8128 16.4341C35.0306 16.9447 35.1185 17.5013 35.0685 18.0541C35.0185 18.6069 34.8322 19.1387 34.5263 19.6019C34.2204 20.065 33.8045 20.4451 33.3156 20.7081C32.8268 20.9711 32.2804 21.1088 31.7254 21.1089H7.88965" stroke="#96A6C0" stroke-width="2" stroke-miterlimit="10" stroke-linecap="round"/>
<path d="M19.5658 31.5429C19.9499 31.9436 20.4274 32.2428 20.9555 32.4137C21.4836 32.5847 22.0458 32.622 22.5919 32.5224C23.1379 32.4227 23.6508 32.1893 24.0845 31.8429C24.5182 31.4964 24.8592 31.0479 25.0771 30.5373C25.2949 30.0268 25.3828 29.4702 25.3328 28.9174C25.2828 28.3646 25.0965 27.8328 24.7906 27.3696C24.4847 26.9064 24.0687 26.5263 23.5799 26.2634C23.0911 26.0004 22.5447 25.8627 21.9896 25.8626H7.88965" stroke="#96A6C0" stroke-width="2" stroke-miterlimit="10" stroke-linecap="round"/>
<path d="M18.0495 12.0394C18.3795 11.6813 18.7898 11.414 19.2436 11.2612C19.6974 11.1085 20.1805 11.0751 20.6497 11.1641C21.1189 11.2532 21.5596 11.4618 21.9322 11.7714C22.3049 12.0809 22.598 12.4818 22.7851 12.938C22.9723 13.3942 23.0478 13.8916 23.0049 14.3856C22.9619 14.8796 22.8019 15.3548 22.539 15.7687C22.2762 16.1826 21.9187 16.5223 21.4987 16.7573C21.0787 16.9923 20.6092 17.1154 20.1322 17.1154H8.0166" stroke="#96A6C0" stroke-width="2" stroke-miterlimit="10" stroke-linecap="round"/>
</svg>
